<?xml version="1.0" encoding="UTF-8"?>
<svg id="Livello_2" data-name="Livello 2" xmlns="http://www.w3.org/2000/svg" viewBox="0 0 281.85 126.52">
  <defs>
    <style>
      .cls-1 {
        fill: #466728;
        stroke-width: 0px;
      }
    </style>
  </defs>
  <g id="Livello_1-2" data-name="Livello 1">
    <g>
      <path class="cls-1" d="M.38,61.23c3.33-6.17,7.89-12.15,14.38-15.24,0,0,1.42-.68,1.42-.68.93-.45,1.83-.96,2.72-1.5,6.21-3.74,11.62-8.91,16.5-14.26,2.27-2.37,3.66-5.16,6-7.62,1.97-2.09,4.48-2.6,6.86-1.2,3.78,2.04,6.8,5.24,10.56,7.02.05.02-.02-.01-.07,0-.14,0-.31,0-.68.16-.17.09-.43.28-.55.47,0,0,.12-.26.2-.73.76-6.28,5.64-6.28,10.79-6.42,1.24-.03,3.55-.03,4.67-.13,1.17-.05,1.85-.62,2.95-.56,2.57,0,5.63,1.73,7.92,1.18,2.34-1.74,4.18-3.93,7.23-5.3.47-.2,1.19-.5,1.69-.66,2.68-.98,5.76-3.3,8.92-2.15,3.48,1.22,5.78,4.69,7.94,7.34,1.9,2.5,3.85,5.34,5.57,7.97.23.36.55.69.48.6-.03-.04-.28-.12-.41-.12,1.53-.48,3.62-1.79,5.21-2.8,4.69-3.15,9.55-6.26,13.02-10.67,1.72-2.17,3.41-4.27,5.45-6.27,1.42-1.34,3.19-3.04,5.36-2.93-.08-.04-.22,0-.25,0-.14.06.24-.11.55-.37,1.61-1.25,3.17-3.01,5.1-4.19,6.53-4.01,10.2,2.07,11.67,7.58,0,0-.58-.96-.58-.96-.05-.04-.03-.03-.02-.02.24.19.53.34.82.45,1.16.46,2.47.11,3.56-.43,1.32-.6,2.91-1.08,4.69-.85,2.54.33,4.26,1.94,5.6,3.77,2.57,2.24,6.04,3.71,8.66,6.08.64.58,1.2,1.18,1.66,2.04l-1.36-1.15-.11-.03s-.02,0,0,0c.24.02.47-.01.73-.08,3.37-.96,5.57-4.37,7.62-7.04,2.17-2.82,4.45-5.6,7.09-8.05,1.37-1.21,3.12-2.82,5.19-3.11.91-.11,1.93.25,2.65.81,1.27.9,2.43,1.95,3.54,2.93,1.63,1.53,6,5.5,7.64,6.96.94.8,1.99,1.74,2.82,2.25-.05-.02-.14-.05-.21-.06-.06-.01-.2-.02-.19-.02h.12c3.19-.02,4.56,2.6,5.46,5.19,0,0-.85-1.06-.85-1.06,2.86,1.96,5.8,3.89,8.1,6.52,1.68,1.87,2.61,3.7,4.65,4.62,2.43.96,4.72,1.99,6.78,3.82,5.15,4.99,8.21,11.68,13.11,16.81l.03.03s-.08-.04-.13-.05c-.1-.01-.03-.01-.05,0-.02.02.05.05.27-.06.22-.1.5-.3.85-.55,3.78-3,4.99,2.03,7.44,3.68,0,0,.51.23.51.23.14.07.31.14.41.21,3.02,2.18,5.52,4.89,7.96,7.57,2.09,2.51,4.42,5.03,5.47,8.18-1.36-2.99-3.91-5.2-6.22-7.44-2.64-2.34-5.28-4.73-8.24-6.47-.07-.04-.1-.03-.14-.05.01-.02-.37-.12-.63-.22-1.89-.79-3.04-2.82-4.5-3.89-.02,0,.04.05.07.04.1.07.25.03.24.05-.48.28-1.02.93-1.71,1.31-.8.55-2.38.82-3.36.11-2-1.43-3.53-3.41-5.12-5.16-2.15-2.52-4.31-5.01-6.28-7.6-.8-1.07-1.91-2.62-2.86-3.45-1.56-1.43-3.83-2.36-5.86-3.18-2.6-1.11-4.43-3.85-5.98-5.67-2.02-2.29-4.68-3.98-7.19-5.72,0,0-.6-.39-.6-.39-.29-.8-.98-2.54-1.31-2.95.02,0-.07-.02-.25-.04l-.33-.03c-.14,0-.3-.03-.5-.07-.67-.11-1.37-.59-1.77-.86-4.6-3.43-9.13-8.43-13.65-11.91-.09-.07-.19-.11-.25-.16.12.08.44.14.54.1-3.74,2.15-6.53,6.11-9.27,9.47-2.85,3.83-6.16,8.33-11.34,8.83-.66.06-1.46-.08-2.21-.29,0,0-.74-.99-.74-.99-2.68-2.94-6.73-4.19-9.63-7.1-.12-.13-.33-.39-.43-.53-.58-.85-1.58-1.78-2.48-1.83-.85-.19-2.3.47-3.25.89-2.56,1.05-5.7.8-7.92-.94-.21-.17-.54-.47-.74-.64-2.81-9.3-4.09-6.88-10.14-1.74-.6.49-2.06,1.37-3.3,1.22.02.03.19.02.23,0-2.87,1.82-5,4.9-7.22,7.55-3.81,4.87-9.1,8.3-14.1,11.65-2.02,1.26-3.82,2.46-6.18,3.25-.88.36-2.58.29-3.39-.38-.96-.69-1.28-1.26-1.66-1.76l-1.79-2.69c-2.45-3.51-4.99-7.32-8.11-10.15-.93-.75-1.72-1.18-3.05-.64-1.22.48-2.97,1.47-4.44,1.96l-.69.25c-.21.08-.41.17-.61.26-2.38.99-4.53,3.62-6.91,5.15-3.44,1.74-6.86-.27-10.11-.62-2.16.96-7.44.52-10.57.84,0,0-.77.06-.77.06l-.63.08c-.55.09-.95.21-1.34.44-.56.5-.58,1.23-.77,2.15-.13.86-.75,2.82-1.94,3.32-1.74.83-3.34-.14-4.72-.91-3.22-1.95-6-4.5-9.15-6.3-.37-.2-.74-.34-.7-.29,0-.03-.05,0-.25.08-.1.08-.21.11-.35.25-1.54,1.3-2.82,3.62-4.06,5.25-1.23,1.82-2.88,3.55-4.53,5.03-5.35,4.71-11.1,9.03-17.66,11.93-.51.21-1.01.45-1.54.62l-1.54.56c-6.41,2.37-11.32,7.65-15.2,13.2H.38Z"/>
      <path class="cls-1" d="M281.47,68.78c-.15,0-.28-.08-.35-.22-1.16-2.55-3.25-4.55-5.27-6.49l-1.18-1.11c-2.48-2.21-5.05-4.49-7.86-6.14-.02,0-.09-.02-.11-.03l-.04-.02s-.08-.03-.13-.04c-.14-.04-.31-.1-.45-.15-1.24-.51-2.14-1.49-3.01-2.43-.39-.42-.77-.83-1.15-1.17-.1.08-.2.17-.31.27-.32.28-.67.59-1.1.82-.94.65-2.68.88-3.77.09-1.6-1.14-2.89-2.62-4.15-4.05-.34-.39-.69-.79-1.04-1.17l-.53-.62c-1.94-2.27-3.95-4.62-5.77-7.01l-.27-.36c-.77-1.03-1.72-2.32-2.54-3.03-1.53-1.4-3.77-2.31-5.75-3.12-2.22-.95-3.91-3.04-5.26-4.71-.3-.37-.59-.73-.87-1.06-1.74-1.97-3.99-3.51-6.17-5l-1.54-1.04c-.07-.05-.12-.11-.15-.19-.32-.89-.89-2.26-1.18-2.73-.02,0-.04,0-.07,0l-.32-.03c-.14,0-.31-.03-.54-.07-.7-.11-1.41-.58-1.84-.87,0,0-.08-.06-.09-.06-2.4-1.8-4.82-4.04-7.15-6.21-2.04-1.9-4.14-3.86-6.21-5.48-2.92,1.82-5.25,4.75-7.51,7.59-.41.52-.82,1.03-1.23,1.53l-.05.07c-2.93,3.93-6.24,8.39-11.56,8.9-.77.07-1.63-.1-2.25-.28-.16.03-.3-.16-1.04-1.16-1.32-1.45-3.01-2.48-4.8-3.57-1.65-1.01-3.36-2.05-4.8-3.49-.13-.14-.35-.42-.46-.56-.54-.79-1.45-1.64-2.21-1.69-.77-.17-2.19.46-3.03.85-2.86,1.17-6.12.78-8.35-.97-.18-.14-.45-.38-.65-.56l-.11-.1c-.05-.05-.09-.11-.11-.18-1.2-3.96-2.09-5.69-3.08-5.97-1.03-.29-2.52,1-4.77,2.96-.52.45-1.07.94-1.68,1.45-.58.48-1.95,1.31-3.24,1.33-2.2,1.44-3.99,3.67-5.72,5.82-.43.53-.85,1.06-1.28,1.57-3.68,4.71-8.71,8.06-13.56,11.31l-1.19.77c-1.81,1.14-3.52,2.21-5.71,2.94-1,.42-2.84.32-3.76-.45-.83-.59-1.21-1.12-1.54-1.58l-.18-.25-2.45-3.63c-2.26-3.24-4.59-6.59-7.4-9.15-.91-.73-1.54-1.02-2.65-.57-.5.19-1.09.48-1.71.78-.92.44-1.87.89-2.75,1.19l-.68.25c-.12.04-.23.09-.35.15l-.25.1c-1.34.55-2.6,1.65-3.93,2.81-.94.82-1.91,1.66-2.92,2.31-2.57,1.3-5.04.67-7.43.05-.98-.25-1.91-.49-2.83-.6-1.48.61-4.14.64-6.71.68-1.43.02-2.78.03-3.87.15l-1.39.14c-.52.09-.87.2-1.2.39-.29.27-.37.73-.49,1.37-.03.17-.06.34-.1.52-.12.79-.75,3.01-2.17,3.59-1.84.87-3.54-.08-4.91-.85l-.14-.08c-1.56-.94-3.02-2.03-4.43-3.07-1.59-1.18-3.09-2.3-4.72-3.23-.2-.11-.39-.19-.5-.23-.02.01-.05.02-.07.03-.03.02-.07.04-.1.07-.06.04-.11.07-.17.12-1.04.88-1.96,2.23-2.84,3.53-.4.59-.79,1.16-1.18,1.67-1.1,1.63-2.69,3.39-4.58,5.08-6.44,5.67-12.09,9.48-17.76,11.99l-.43.18c-.38.16-.75.32-1.15.46l-1.53.56c-5.35,1.98-10.26,6.25-15.02,13.06-.12.17-.34.21-.52.11-.17-.11-.23-.33-.14-.51,4.14-7.67,8.9-12.71,14.56-15.4l1.42-.69c.88-.43,1.76-.91,2.68-1.48,5.28-3.18,10.49-7.69,16.41-14.19,1.12-1.17,2-2.41,2.93-3.72.92-1.3,1.88-2.65,3.07-3.9,2.12-2.25,4.86-2.73,7.33-1.26,1.78.96,3.42,2.19,5,3.38,1.36,1.03,2.67,2.01,4.05,2.83,1.16-5.5,6-5.63,10.69-5.75h.31c.36-.02.8-.02,1.28-.03,1.15-.02,2.58-.04,3.36-.11.51-.02.91-.15,1.34-.28.5-.16,1.01-.31,1.68-.28,1.14,0,2.39.34,3.59.66,1.52.41,2.95.79,4.14.54.71-.54,1.37-1.1,2.07-1.71,1.5-1.3,3.04-2.64,5.17-3.59.26-.11,1.12-.48,1.73-.68.63-.23,1.3-.55,2-.88,2.18-1.03,4.65-2.18,7.17-1.27,3.06,1.07,5.22,3.81,7.13,6.23.33.42.66.83.98,1.23,1.73,2.28,3.66,5.05,5.59,8,.04.06.07.11.11.16,1.53-.6,3.52-1.87,4.64-2.58l.88-.59c4.34-2.91,8.83-5.91,12.04-9.99,1.9-2.39,3.5-4.37,5.48-6.31,1.43-1.36,3.15-2.97,5.28-3.05.1-.06.26-.15.4-.27.6-.47,1.19-1,1.8-1.56,1.04-.94,2.11-1.91,3.35-2.67,2.26-1.39,4.37-1.71,6.26-.95,3.18,1.27,4.89,5.16,5.73,7.87.07.03.15.07.23.1.89.35,1.98.22,3.26-.41,1.76-.8,3.36-1.09,4.91-.88,2.94.38,4.75,2.42,5.86,3.92,1.16,1,2.56,1.87,4.05,2.8,1.56.97,3.18,1.98,4.56,3.22.22.21.46.43.68.67,2.78-.85,4.78-3.53,6.56-5.89.25-.33.49-.66.73-.97,1.96-2.55,4.34-5.5,7.13-8.1l.16-.14c1.39-1.24,3.13-2.77,5.24-3.07.94-.12,2.08.22,2.94.88,1.15.82,2.2,1.75,3.22,2.65l.34.3c1.69,1.59,6.08,5.57,7.64,6.96l.54.46c.7.6,1.43,1.22,2.04,1.63,2.93.11,4.36,2.4,5.24,4.67,2.62,1.79,5.32,3.65,7.46,6.1.48.53.9,1.06,1.3,1.57.99,1.25,1.84,2.33,3.22,2.95,2.28.9,4.69,1.95,6.87,3.88,2.76,2.67,4.94,5.85,7.05,8.92,1.81,2.63,3.67,5.34,5.87,7.69.19-.11.45-.29.68-.45.96-.76,1.85-1.09,2.7-.99,1.36.17,2.32,1.41,3.25,2.61.6.77,1.22,1.58,1.92,2.04l.46.2c.21.1.36.17.46.24,3.17,2.29,5.87,5.26,8.03,7.64l.75.89c1.89,2.25,3.85,4.58,4.79,7.42.07.19-.03.4-.22.48-.05.02-.09.03-.14.03ZM267.03,54.09s.08.02.15.06c2.89,1.7,5.49,4.01,8,6.24l1.2,1.13c.36.34.72.69,1.08,1.04-.33-.4-.67-.8-1-1.2l-.74-.89c-2.71-2.99-5.02-5.44-7.89-7.51-.06-.04-.18-.09-.28-.14l-.57-.26c-.85-.57-1.51-1.42-2.15-2.24-.87-1.13-1.7-2.19-2.74-2.32-.66-.09-1.34.2-2.15.84-.39.27-.67.46-.89.58,0,0,0,0,0,0-.11.13-.28.19-.45.12-.18,0-.28-.09-.34-.18-.04-.06-.06-.14-.06-.21-2.22-2.38-4.08-5.1-5.89-7.73-2.09-3.04-4.25-6.18-6.94-8.79-2.08-1.84-4.43-2.85-6.65-3.73-1.56-.7-2.52-1.91-3.53-3.18-.39-.5-.8-1.01-1.27-1.54-1.9-2.18-4.28-3.89-6.64-5.51-.07.12-.21.2-.35.18-.12,0-.22-.07-.29-.16-.07-.09-.84-1.05-.84-1.05-.12-.15-.11-.36.02-.5.04-.05.1-.08.16-.1-.79-1.72-1.96-3.17-4.01-3.35-.1.06-.22.07-.34.02-.03-.01-.1-.03-.13-.04h-.15c-.12-.02-.23-.08-.3-.18-.04-.06-.06-.13-.06-.21-.55-.41-1.15-.92-1.73-1.42l-.54-.46c-1.56-1.4-5.96-5.39-7.65-6.97l-.33-.29c-1-.89-2.04-1.81-3.17-2.61-.72-.55-1.63-.83-2.39-.74-1.87.27-3.51,1.72-4.83,2.89l-.15.13c-2.74,2.56-5.1,5.48-7.04,8-.24.31-.48.64-.73.96-1.78,2.37-3.79,5.05-6.65,6.07.19.25.37.53.53.84.09.16.04.36-.1.48-.14.12-.34.12-.49,0l-1.32-1.1c-.17-.05-.3-.21-.3-.39,0-.14.09-.26.21-.33-.08-.08-.17-.16-.26-.24-1.33-1.2-2.91-2.19-4.45-3.14-1.45-.9-2.94-1.83-4.21-2.93-1.68-2.27-3.38-3.42-5.4-3.68-1.41-.18-2.87.09-4.48.82-1.33.65-2.53.84-3.56.54.03.18-.06.36-.23.43-.17.07-.38,0-.48-.15l-.57-.94c-.07-.1-.12-.23-.09-.34.02-.11.09-.2.19-.25-.79-2.34-2.37-5.74-5.09-6.83-1.65-.65-3.53-.36-5.58.89-1.18.72-2.22,1.67-3.23,2.58-.63.57-1.22,1.11-1.84,1.59-.05.04-.1.08-.16.12,0,.01,0,.02,0,.03-.04.18-.18.31-.39.29-.06,0-.12,0-.17,0-1.9,0-3.54,1.54-4.86,2.79-1.98,1.95-3.57,3.91-5.45,6.27-3.29,4.17-7.83,7.21-12.22,10.15l-.89.6c-1.51.96-3.2,2.01-4.62,2.59,0,.05,0,.1-.02.15-.05.13-.18.23-.32.24-.06.01-.16.02-.33-.13.02.03-.08,0-.12,0-.19-.02-.36-.12-.4-.31-.02-.09,0-.18.05-.26-.02-.03-.04-.06-.06-.09-1.92-2.94-3.84-5.69-5.55-7.94-.32-.39-.65-.8-.98-1.23-1.84-2.33-3.93-4.98-6.78-5.98-2.24-.81-4.44.23-6.58,1.24-.72.34-1.4.66-2.07.91-.58.19-1.42.55-1.67.66-2.01.91-3.52,2.21-4.97,3.47-.69.6-1.41,1.22-2.17,1.79-.04.03-.09.05-.14.07-1.39.33-3.02-.1-4.59-.53-1.21-.33-2.5-.65-3.58-.64-.46,0-.84.12-1.27.25-.43.14-.92.29-1.52.31-.8.07-2.18.09-3.4.11-.48,0-.92.01-1.28.02h-.31c-4.84.13-9.05.25-10,5.39.26.14.51.27.78.39.19.07.28.27.22.46-.06.19-.27.31-.47.26-.1,0-.21,0-.5.13-.15.08-.33.23-.39.33-.1.17-.33.23-.51.13-.18-.09-.25-.31-.17-.49,0,0,.1-.24.17-.64,0-.06.01-.12.02-.18-1.55-.89-2.98-1.97-4.37-3.02-1.56-1.18-3.17-2.39-4.91-3.33-2.19-1.29-4.51-.88-6.4,1.12-1.16,1.21-2.1,2.54-3,3.82-.91,1.28-1.85,2.6-2.99,3.8-5.97,6.55-11.24,11.11-16.58,14.32-.94.58-1.84,1.08-2.75,1.52l-1.42.69c-3.95,1.88-7.47,4.95-10.63,9.32,3.55-3.9,7.23-6.54,11.15-7.99l1.54-.56c.38-.13.74-.28,1.1-.44l.43-.18c5.59-2.47,11.17-6.25,17.56-11.86,1.84-1.64,3.38-3.36,4.47-4.95.39-.51.77-1.08,1.17-1.66.91-1.34,1.86-2.73,2.96-3.67.1-.1.21-.16.28-.21.03-.02.06-.03.08-.05.03-.02.06-.04.1-.05l.14-.06s.04-.01.06-.02c.15-.09.4-.06,1.07.31,1.68.96,3.27,2.14,4.81,3.28,1.39,1.04,2.84,2.11,4.35,3.03l.13.07c1.34.75,2.73,1.53,4.22.82,1.02-.42,1.6-2.22,1.73-3.03.04-.19.07-.36.1-.52.12-.7.24-1.37.79-1.86.47-.28.89-.43,1.53-.53l1.43-.15c1.12-.12,2.48-.13,3.93-.15,2.55-.03,5.19-.07,6.51-.65.06-.03.13-.04.2-.03,1.01.11,2.04.37,3.04.63,2.26.58,4.59,1.18,6.86.03.93-.6,1.88-1.42,2.8-2.22,1.32-1.15,2.69-2.34,4.14-2.94l.23-.1c.13-.06.26-.11.39-.16l.69-.25c.85-.28,1.77-.72,2.67-1.15.64-.31,1.24-.6,1.76-.8,1.57-.64,2.56,0,3.43.7,2.89,2.62,5.25,6.01,7.53,9.29l.65.93,1.97,2.94c.31.43.63.88,1.38,1.42.7.58,2.24.66,3.02.34,2.13-.71,3.8-1.76,5.57-2.87l1.18-.76c4.8-3.21,9.77-6.53,13.39-11.15.43-.52.85-1.04,1.28-1.57,1.7-2.12,3.46-4.3,5.64-5.8,0-.05.03-.1.06-.15.08-.12.22-.18.37-.17.02,0,.04,0,.05,0,.1-.04.22-.04.31,0,.97-.05,2.08-.68,2.64-1.15.6-.51,1.15-.99,1.66-1.44,2.52-2.21,4.04-3.54,5.48-3.12,1.3.37,2.26,2.1,3.57,6.38l.03.03c.19.17.45.4.62.53,2.01,1.59,4.97,1.93,7.54.88,1.07-.48,2.51-1.12,3.48-.91,1.03.06,2.11,1.11,2.72,1.99.08.1.29.36.4.48,1.36,1.36,3.03,2.38,4.64,3.36,1.76,1.07,3.57,2.18,4.99,3.74.02.02.49.66.68.91.76.21,1.44.3,1.94.24,4.98-.47,8.18-4.79,11.01-8.59l.06-.08c.42-.51.82-1.02,1.23-1.54,2.24-2.82,4.55-5.72,7.47-7.62-.07-.12-.07-.28.01-.4.12-.17.34-.23.52-.12.05.03.2.07.27.06.18-.06.37.03.45.21.04.08.04.17.01.25,2.04,1.62,4.11,3.54,6.11,5.41,2.32,2.16,4.72,4.39,7.09,6.16.43.28,1.05.7,1.6.78.18.03.32.06.44.06l.35.03c.16.02.25.04.29.05.09.02.17.06.23.14.41.51,1.14,2.43,1.33,2.94l1.44.98c2.22,1.52,4.51,3.09,6.31,5.13.29.34.58.7.89,1.08,1.37,1.69,2.92,3.61,4.96,4.49,2.03.82,4.34,1.76,5.96,3.25.88.76,1.86,2.09,2.65,3.15l.26.36c1.8,2.37,3.8,4.71,5.74,6.97l.52.61c.34.38.69.77,1.04,1.17,1.22,1.4,2.49,2.84,4.01,3.93.86.62,2.27.32,2.92-.12.38-.21.69-.48.99-.75.09-.08.17-.15.25-.22-.03-.09-.02-.2.02-.29.1-.2.39-.27.57-.14,0,0,0,0,.01.01.01,0,.03.02.04.03.19-.02.3.07.35.16.03.05.05.11.05.17.42.37.81.79,1.22,1.23.82.88,1.66,1.79,2.73,2.24.12.04.27.09.38.13.11.03.2.06.27.1Z"/>
    </g>
    <path class="cls-1" d="M2.9,80.23h6.7l7.34,24.08c.71,2.57,1.55,6.5,1.55,6.5h.13s.84-3.93,1.48-6.5l7.34-24.08h6.7l2.83,45.52h-5.67l-1.74-28.46c-.13-2.77,0-6.63,0-6.63h-.19s-.84,4.51-1.55,7.02l-6.24,19.96h-6.05l-6.24-19.96c-.71-2.51-1.61-7.15-1.61-7.15h-.19s.19,3.99,0,6.76l-1.74,28.46H0l2.9-45.52Z"/>
    <path class="cls-1" d="M44.68,80.23h20.92v5.47h-14.87v14.36h12.04v5.47h-12.04v14.74h15.64v5.47h-21.7v-45.52Z"/>
    <path class="cls-1" d="M72.88,80.23h6.05v40.05h15.32v5.47h-21.37v-45.52Z"/>
    <path class="cls-1" d="M108.03,80.23h6.57l12.36,45.52h-6.12l-3.41-13.13h-12.23l-3.28,13.13h-6.12l12.23-45.52ZM116.4,107.46l-3.67-14.36c-.58-2.38-1.29-6.44-1.29-6.44h-.19s-.64,4.06-1.22,6.44l-3.73,14.36h10.11Z"/>
    <path class="cls-1" d="M148.59,79.45c4.12,0,8.56,1.42,11.78,3.93l-2.64,5.15c-2.19-2-5.54-3.28-9.01-3.28-8.24,0-13.26,7.08-13.26,17.64s5.54,17.83,12.68,17.83c3.41,0,6.7-1.42,8.63-4.06v-8.37h-5.47v-5.47h10.88v22.92h-4.89v-1.87c0-.84.13-1.8.13-1.8h-.13c-1.87,2.51-5.73,4.44-10.11,4.44-9.46,0-18.03-8.76-18.03-23.5s7.79-23.56,19.44-23.56Z"/>
    <path class="cls-1" d="M185.74,79.45c10.82,0,18.22,9.34,18.22,23.24s-7.4,23.82-18.22,23.82-18.09-9.59-18.09-23.82,7.28-23.24,18.09-23.24ZM185.74,120.72c7.08,0,11.91-7.02,11.91-18.03s-4.83-17.38-11.91-17.38-11.85,6.63-11.85,17.38,4.76,18.03,11.85,18.03Z"/>
    <path class="cls-1" d="M210.91,80.23h12.43c1.74,0,4.06.45,5.99,1.48,3.73,1.87,6.37,6.05,6.37,11.72,0,6.44-3.61,10.62-6.95,12.43v.13s.58.77,1.16,2.19l7.73,17.58h-6.7l-7.4-18.09h-6.57v18.09h-6.05v-45.52ZM222.56,102.24c3.54,0,6.89-3.15,6.89-8.43,0-3.09-1.09-5.6-2.9-6.82-1.1-.77-2.7-1.22-3.99-1.22h-5.6v16.48h5.6Z"/>
    <path class="cls-1" d="M251.72,80.23h6.57l12.36,45.52h-6.12l-3.41-13.13h-12.23l-3.28,13.13h-6.12l12.23-45.52ZM260.09,107.46l-3.67-14.36c-.58-2.38-1.29-6.44-1.29-6.44h-.19s-.64,4.06-1.22,6.44l-3.73,14.36h10.11Z"/>
    <path class="cls-1" d="M275.8,80.23h6.05v45.52h-6.05v-45.52Z"/>
  </g>
</svg>