<svg width="64" height="64" viewBox="0 0 64 64" fill="none" xmlns="http://www.w3.org/2000/svg">
<rect width="64" height="64" rx="32" fill="#466728"/>
<path d="M6.75391 36.8212C7.35424 35.7089 8.17633 34.6308 9.34636 34.0737L9.60236 33.9511C9.77002 33.87 9.93227 33.7781 10.0927 33.6807C11.2123 33.0065 12.1876 32.0744 13.0674 31.1099C13.4766 30.6826 13.7272 30.1796 14.1491 29.7361C14.5042 29.3594 14.9567 29.2674 15.3858 29.5198C16.0673 29.8876 16.6117 30.4645 17.2896 30.7854C17.2986 30.789 17.286 30.7836 17.2769 30.7854C17.2517 30.7854 17.2211 30.7854 17.1544 30.8142C17.1237 30.8304 17.0768 30.8647 17.0552 30.899C17.0552 30.899 17.0768 30.8521 17.0913 30.7674C17.2283 29.6352 18.108 29.6352 19.0365 29.6099C19.26 29.6045 19.6765 29.6045 19.8784 29.5865C20.0893 29.5775 20.2119 29.4747 20.4102 29.4855C20.8736 29.4855 21.4252 29.7974 21.8381 29.6983C22.2599 29.3846 22.5917 28.9898 23.1415 28.7428C23.2262 28.7067 23.356 28.6526 23.4462 28.6238C23.9293 28.4471 24.4846 28.0289 25.0543 28.2362C25.6817 28.4561 26.0963 29.0817 26.4857 29.5595C26.8283 30.0102 27.1798 30.5222 27.4899 30.9963C27.5314 31.0612 27.5891 31.1207 27.5764 31.1045C27.571 31.0973 27.526 31.0828 27.5025 31.0828C27.7784 30.9963 28.1551 30.7601 28.4418 30.5781C29.2873 30.0102 30.1635 29.4495 30.7891 28.6544C31.0991 28.2632 31.4038 27.8846 31.7716 27.5241C32.0276 27.2825 32.3467 26.976 32.7379 26.9959C32.7235 26.9886 32.6982 26.9959 32.6928 26.9959C32.6676 27.0067 32.7361 26.976 32.792 26.9292C33.0822 26.7038 33.3635 26.3865 33.7114 26.1738C34.8887 25.4508 35.5503 26.547 35.8153 27.5403L35.7108 27.3672C35.7017 27.36 35.7053 27.3618 35.7071 27.3636C35.7504 27.3979 35.8027 27.4249 35.855 27.4448C36.0641 27.5277 36.3003 27.4646 36.4968 27.3672C36.7348 27.2591 37.0214 27.1725 37.3423 27.214C37.8002 27.2735 38.1103 27.5637 38.3519 27.8937C38.8152 28.2975 39.4408 28.5625 39.9131 28.9898C40.0285 29.0943 40.1295 29.2025 40.2124 29.3575L39.9672 29.1502L39.9474 29.1448C39.9906 29.1484 40.0321 29.143 40.079 29.1304C40.6865 28.9573 41.0831 28.3426 41.4527 27.8612C41.8439 27.3528 42.255 26.8516 42.7309 26.4099C42.9779 26.1918 43.2934 25.9015 43.6666 25.8493C43.8306 25.8294 44.0145 25.8943 44.1443 25.9953C44.3733 26.1575 44.5824 26.3468 44.7825 26.5235C45.0764 26.7994 45.8642 27.5151 46.1599 27.7783C46.3293 27.9225 46.5186 28.092 46.6683 28.1839C46.6593 28.1803 46.643 28.1749 46.6304 28.1731C46.6196 28.1713 46.5944 28.1695 46.5962 28.1695H46.6178C47.1929 28.1659 47.4399 28.6382 47.6021 29.1052L47.4489 28.9141C47.9645 29.2674 48.4945 29.6154 48.9092 30.0895C49.212 30.4266 49.3797 30.7565 49.7475 30.9224C50.1856 31.0955 50.5984 31.2812 50.9698 31.6111C51.8982 32.5107 52.4499 33.7168 53.3333 34.6416L53.3387 34.647C53.3387 34.647 53.3243 34.6398 53.3153 34.638C53.2972 34.6362 53.3099 34.6362 53.3062 34.638C53.3026 34.6416 53.3153 34.647 53.3549 34.6272C53.3946 34.6092 53.4451 34.5731 53.5082 34.528C54.1896 33.9872 54.4078 34.894 54.8495 35.1915L54.9414 35.2329C54.9666 35.2455 54.9973 35.2582 55.0153 35.2708C55.5598 35.6638 56.0105 36.1524 56.4504 36.6355C56.8271 37.088 57.2472 37.5423 57.4365 38.1102C57.1913 37.5712 56.7316 37.1728 56.3151 36.7689C55.8392 36.3471 55.3633 35.9162 54.8296 35.6025C54.817 35.5953 54.8116 35.5971 54.8044 35.5935C54.8062 35.5899 54.7377 35.5719 54.6908 35.5538C54.3501 35.4114 54.1428 35.0454 53.8795 34.8525C53.8759 34.8525 53.8868 34.8615 53.8922 34.8597C53.9102 34.8724 53.9372 34.8652 53.9354 34.8688C53.8489 34.9192 53.7515 35.0364 53.6271 35.1049C53.4829 35.2041 53.1981 35.2528 53.0214 35.1248C52.6608 34.867 52.385 34.51 52.0984 34.1945C51.7108 33.7402 51.3213 33.2913 50.9662 32.8244C50.822 32.6315 50.6219 32.352 50.4506 32.2024C50.1693 31.9446 49.7601 31.7769 49.3941 31.6291C48.9254 31.429 48.5955 30.935 48.316 30.6069C47.9519 30.1941 47.4723 29.8894 47.0198 29.5757L46.9117 29.5054C46.8594 29.3612 46.735 29.0475 46.6755 28.9735C46.6791 28.9735 46.6629 28.9699 46.6304 28.9663L46.5709 28.9609C46.5457 28.9609 46.5168 28.9555 46.4808 28.9483C46.36 28.9285 46.2338 28.8419 46.1617 28.7933C45.3324 28.1749 44.5157 27.2735 43.7008 26.6461C43.6846 26.6335 43.6666 26.6263 43.6558 26.6173C43.6774 26.6317 43.7351 26.6425 43.7531 26.6353C43.0789 27.0229 42.5759 27.7368 42.0819 28.3426C41.5681 29.033 40.9714 29.8443 40.0375 29.9344C39.9185 29.9453 39.7743 29.92 39.6391 29.8822L39.5057 29.7037C39.0225 29.1737 38.2924 28.9483 37.7696 28.4237C37.7479 28.4003 37.7101 28.3534 37.692 28.3281C37.5875 28.1749 37.4072 28.0072 37.2449 27.9982C37.0917 27.964 36.8303 28.083 36.659 28.1587C36.1975 28.348 35.6314 28.3029 35.2312 27.9892C35.1933 27.9586 35.1339 27.9045 35.0978 27.8738C34.5912 26.1972 34.3604 26.6335 33.2697 27.5601C33.1616 27.6485 32.8984 27.8071 32.6748 27.7801C32.6784 27.7855 32.7091 27.7837 32.7163 27.7801C32.1989 28.1082 31.8149 28.6635 31.4146 29.1412C30.7278 30.0192 29.7741 30.6375 28.8727 31.2415C28.5085 31.4686 28.184 31.685 27.7585 31.8274C27.5999 31.8923 27.2934 31.8797 27.1474 31.7589C26.9743 31.6345 26.9166 31.5317 26.8481 31.4416L26.5254 30.9566C26.0837 30.3239 25.6258 29.637 25.0633 29.1268C24.8957 28.9916 24.7532 28.9141 24.5135 29.0114C24.2935 29.0979 23.978 29.2764 23.713 29.3648L23.5886 29.4098C23.5508 29.4243 23.5147 29.4405 23.4786 29.4567C23.0496 29.6352 22.662 30.1093 22.2329 30.3852C21.6127 30.6988 20.9962 30.3365 20.4102 30.2734C20.0208 30.4464 19.0689 30.3671 18.5047 30.4248L18.3659 30.4356L18.2523 30.4501C18.1531 30.4663 18.081 30.4879 18.0107 30.5294C17.9097 30.6195 17.9061 30.7511 17.8719 30.917C17.8484 31.072 17.7367 31.4254 17.5221 31.5155C17.2084 31.6652 16.92 31.4903 16.6712 31.3515C16.0907 30.9999 15.5895 30.5402 15.0216 30.2157C14.9549 30.1796 14.8882 30.1544 14.8954 30.1634C14.8954 30.158 14.8864 30.1634 14.8504 30.1778C14.8323 30.1923 14.8125 30.1977 14.7873 30.2229C14.5096 30.4573 14.2789 30.8755 14.0553 31.1694C13.8336 31.4975 13.5361 31.8094 13.2386 32.0762C12.2741 32.9253 11.2375 33.7041 10.0549 34.227C9.96292 34.2648 9.87278 34.3081 9.77723 34.3387L9.4996 34.4397C8.34399 34.867 7.45881 35.8188 6.75931 36.8194H6.75391V36.8212Z" fill="white"/>
<path d="M57.4295 38.1825C57.4025 38.1825 57.379 38.1681 57.3664 38.1429C57.1573 37.6832 56.7805 37.3226 56.4163 36.9728L56.2036 36.7727C55.7565 36.3743 55.2932 35.9633 54.7866 35.6658C54.783 35.6658 54.7704 35.6622 54.7667 35.6604L54.7595 35.6568C54.7595 35.6568 54.7451 35.6514 54.7361 35.6496C54.7109 35.6424 54.6802 35.6316 54.655 35.6225C54.4314 35.5306 54.2692 35.3539 54.1123 35.1845C54.042 35.1087 53.9735 35.0348 53.905 34.9735C53.887 34.9879 53.8689 35.0042 53.8491 35.0222C53.7914 35.0727 53.7283 35.1286 53.6508 35.17C53.4813 35.2872 53.1676 35.3287 52.9711 35.1863C52.6827 34.9807 52.4501 34.7139 52.223 34.4561C52.1617 34.3858 52.0986 34.3137 52.0355 34.2452L51.9399 34.1334C51.5902 33.7242 51.2278 33.3005 50.8997 32.8696L50.851 32.8047C50.7122 32.619 50.5409 32.3865 50.3931 32.2585C50.1173 32.0061 49.7134 31.842 49.3565 31.696C48.9563 31.5247 48.6516 31.1479 48.4082 30.8469C48.3541 30.7802 48.3018 30.7153 48.2514 30.6558C47.9377 30.3006 47.532 30.023 47.139 29.7544L46.8614 29.5669C46.8488 29.5579 46.8398 29.547 46.8343 29.5326C46.7767 29.3722 46.6739 29.1252 46.6216 29.0405C46.618 29.0405 46.6144 29.0405 46.609 29.0405L46.5513 29.035C46.5261 29.035 46.4954 29.0296 46.454 29.0224C46.3278 29.0026 46.1998 28.9179 46.1222 28.8656C46.1222 28.8656 46.1078 28.8548 46.106 28.8548C45.6733 28.5303 45.2371 28.1264 44.817 27.7352C44.4492 27.3927 44.0706 27.0393 43.6974 26.7473C43.171 27.0754 42.751 27.6036 42.3435 28.1156C42.2696 28.2094 42.1957 28.3013 42.1218 28.3914L42.1128 28.4041C41.5845 29.1126 40.9878 29.9166 40.0287 30.0086C39.8899 30.0212 39.7349 29.9905 39.6231 29.9581C39.5942 29.9635 39.569 29.9292 39.4356 29.749C39.1976 29.4875 38.8929 29.3019 38.5702 29.1054C38.2728 28.9233 37.9645 28.7358 37.7049 28.4762C37.6814 28.4509 37.6418 28.4005 37.622 28.3752C37.5246 28.2328 37.3605 28.0795 37.2235 28.0705C37.0847 28.0399 36.8287 28.1535 36.6773 28.2238C36.1617 28.4347 35.574 28.3644 35.1719 28.0489C35.1395 28.0237 35.0908 27.9804 35.0547 27.9479L35.0349 27.9299C35.0259 27.9209 35.0187 27.9101 35.0151 27.8975C34.7987 27.1835 34.6383 26.8717 34.4598 26.8212C34.2741 26.7689 34.0055 27.0015 33.5999 27.3548C33.5061 27.4359 33.407 27.5243 33.297 27.6162C33.1924 27.7028 32.9454 27.8524 32.7129 27.856C32.3163 28.1156 31.9936 28.5176 31.6817 28.9052C31.6042 29.0008 31.5284 29.0963 31.4509 29.1883C30.7875 30.0374 29.8807 30.6414 29.0063 31.2273L28.7918 31.3661C28.4654 31.5716 28.1572 31.7645 27.7624 31.8961C27.5821 31.9718 27.2504 31.9538 27.0845 31.815C26.9349 31.7086 26.8664 31.6131 26.8069 31.5301L26.7744 31.4851L26.3327 30.8306C25.9253 30.2465 25.5052 29.6426 24.9986 29.1811C24.8346 29.0495 24.721 28.9972 24.5209 29.0783C24.4307 29.1126 24.3244 29.1648 24.2126 29.2189C24.0467 29.2983 23.8755 29.3794 23.7168 29.4335L23.5942 29.4785C23.5726 29.4857 23.5528 29.4948 23.5311 29.5056L23.4861 29.5236C23.2445 29.6228 23.0173 29.8211 22.7776 30.0302C22.6081 30.178 22.4332 30.3295 22.2511 30.4466C21.7878 30.681 21.3425 30.5674 20.9116 30.4557C20.735 30.4106 20.5673 30.3673 20.4014 30.3475C20.1346 30.4575 19.6551 30.4629 19.1918 30.4701C18.934 30.4737 18.6906 30.4755 18.4941 30.4971L18.2435 30.5224C18.1497 30.5386 18.0866 30.5584 18.0271 30.5927C17.9749 30.6414 17.9604 30.7243 17.9388 30.8397C17.9334 30.8703 17.928 30.901 17.9208 30.9334C17.8991 31.0758 17.7856 31.4761 17.5296 31.5806C17.1978 31.7375 16.8914 31.5662 16.6444 31.4274L16.6191 31.413C16.3379 31.2435 16.0747 31.047 15.8205 30.8595C15.5338 30.6468 15.2634 30.4448 14.9696 30.2772C14.9335 30.2574 14.8993 30.2429 14.8794 30.2357C14.8758 30.2375 14.8704 30.2393 14.8668 30.2411C14.8614 30.2447 14.8542 30.2483 14.8488 30.2537C14.838 30.261 14.8289 30.2664 14.8181 30.2754C14.6306 30.434 14.4648 30.6774 14.3061 30.9118C14.234 31.0181 14.1637 31.1209 14.0934 31.2128C13.8951 31.5067 13.6084 31.824 13.2677 32.1287C12.1067 33.1509 11.0881 33.8377 10.0659 34.2903L9.98838 34.3227C9.91987 34.3515 9.85317 34.3804 9.78105 34.4056L9.50522 34.5066C8.54072 34.8635 7.65553 35.6334 6.79739 36.8611C6.77576 36.8917 6.7361 36.8989 6.70365 36.8809C6.673 36.8611 6.66218 36.8214 6.67841 36.789C7.42477 35.4062 8.28291 34.4976 9.30331 34.0126L9.55931 33.8882C9.71796 33.8107 9.8766 33.7242 10.0425 33.6214C10.9944 33.0481 11.9336 32.235 13.0009 31.0632C13.2028 30.8523 13.3614 30.6287 13.5291 30.3926C13.695 30.1582 13.868 29.9148 14.0826 29.6895C14.4648 29.2838 14.9587 29.1973 15.404 29.4623C15.7249 29.6354 16.0206 29.8571 16.3054 30.0717C16.5506 30.2574 16.7868 30.434 17.0356 30.5819C17.2447 29.5903 18.1173 29.5669 18.9628 29.5452H19.0187C19.0836 29.5416 19.1629 29.5416 19.2494 29.5398C19.4568 29.5362 19.7146 29.5326 19.8552 29.52C19.9471 29.5164 20.0193 29.493 20.0968 29.4695C20.1869 29.4407 20.2789 29.4136 20.3996 29.419C20.6052 29.419 20.8305 29.4803 21.0469 29.538C21.3209 29.6119 21.5787 29.6805 21.7932 29.6354C21.9212 29.538 22.0402 29.4371 22.1664 29.3271C22.4368 29.0927 22.7145 28.8512 23.0985 28.6799C23.1453 28.6601 23.3004 28.5934 23.4103 28.5573C23.5239 28.5158 23.6447 28.4581 23.7709 28.3986C24.1639 28.213 24.6092 28.0056 25.0635 28.1697C25.6152 28.3626 26.0046 28.8566 26.3489 29.2928C26.4084 29.3686 26.4679 29.4425 26.5256 29.5146C26.8375 29.9256 27.1854 30.425 27.5334 30.9568C27.5406 30.9677 27.546 30.9767 27.5532 30.9857C27.8291 30.8775 28.1878 30.6486 28.3897 30.5206L28.5484 30.4142C29.3308 29.8896 30.1403 29.3487 30.719 28.6132C31.0615 28.1823 31.35 27.8254 31.7069 27.4756C31.9647 27.2304 32.2748 26.9402 32.6588 26.9257C32.6768 26.9149 32.7057 26.8987 32.7309 26.8771C32.8391 26.7923 32.9454 26.6968 33.0554 26.5958C33.2429 26.4264 33.4358 26.2515 33.6594 26.1145C34.0668 25.8639 34.4472 25.8062 34.7879 25.9432C35.3612 26.1722 35.6695 26.8735 35.8209 27.362C35.8336 27.3674 35.848 27.3746 35.8624 27.3801C36.0229 27.4432 36.2194 27.4197 36.4501 27.3061C36.7674 27.1619 37.0559 27.1096 37.3353 27.1475C37.8653 27.216 38.1916 27.5838 38.3918 27.8542C38.6009 28.0345 38.8533 28.1913 39.1219 28.359C39.4031 28.5339 39.6952 28.7159 39.944 28.9395C39.9836 28.9774 40.0269 29.017 40.0666 29.0603C40.5678 28.907 40.9283 28.4239 41.2492 27.9984C41.2943 27.9389 41.3376 27.8794 41.3808 27.8235C41.7342 27.3638 42.1633 26.832 42.6662 26.3633L42.6951 26.338C42.9457 26.1145 43.2594 25.8386 43.6398 25.7846C43.8092 25.7629 44.0147 25.8242 44.1698 25.9432C44.3771 26.091 44.5664 26.2587 44.7503 26.421L44.8116 26.475C45.1163 26.7617 45.9077 27.4792 46.1889 27.7298L46.2863 27.8127C46.4125 27.9209 46.5441 28.0327 46.6541 28.1066C47.1823 28.1264 47.4401 28.5393 47.5987 28.9485C48.0711 29.2712 48.5578 29.6065 48.9436 30.0482C49.0302 30.1438 49.1059 30.2393 49.178 30.3313C49.3565 30.5566 49.5097 30.7513 49.7585 30.8631C50.1696 31.0254 50.604 31.2146 50.9971 31.5626C51.4946 32.0439 51.8876 32.6172 52.268 33.1707C52.5943 33.6448 52.9297 34.1334 53.3263 34.5571C53.3605 34.5372 53.4074 34.5048 53.4489 34.4759C53.622 34.3389 53.7824 34.2794 53.9356 34.2975C54.1808 34.3281 54.3539 34.5517 54.5216 34.768C54.6297 34.9068 54.7415 35.0528 54.8677 35.1358L54.9506 35.1718C54.9885 35.1899 55.0155 35.2025 55.0336 35.2151C55.6051 35.6279 56.0918 36.1634 56.4812 36.5925L56.6164 36.7529C56.9572 37.1585 57.3105 37.5786 57.48 38.0906C57.4926 38.1248 57.4746 38.1627 57.4403 38.1771C57.4313 38.1807 57.4241 38.1825 57.4151 38.1825H57.4295ZM54.8262 35.5342C54.8262 35.5342 54.8407 35.5378 54.8533 35.545C55.3743 35.8515 55.843 36.2679 56.2955 36.67L56.5119 36.8737C56.5768 36.935 56.6417 36.9981 56.7066 37.0612C56.6471 36.9891 56.5858 36.917 56.5263 36.8448L56.3929 36.6844C55.9043 36.1454 55.4879 35.7037 54.9705 35.3305C54.9596 35.3233 54.938 35.3143 54.92 35.3052L54.8172 35.2584C54.664 35.1556 54.545 35.0024 54.4296 34.8545C54.2728 34.6508 54.1231 34.4597 53.9356 34.4363C53.8167 34.4201 53.6941 34.4723 53.548 34.5877C53.4777 34.6364 53.4273 34.6706 53.3876 34.6923C53.3678 34.7157 53.3371 34.7265 53.3065 34.7139C53.274 34.7139 53.256 34.6977 53.2452 34.6815C53.238 34.6706 53.2344 34.6562 53.2344 34.6436C52.8341 34.2145 52.4988 33.7242 52.1725 33.25C51.7957 32.702 51.4063 32.1359 50.9213 31.6654C50.5463 31.3336 50.1227 31.1515 49.7225 30.9929C49.4412 30.8667 49.2682 30.6486 49.0861 30.4196C49.0158 30.3295 48.9418 30.2375 48.8571 30.142C48.5146 29.749 48.0855 29.4407 47.66 29.1486C47.6474 29.1703 47.6222 29.1847 47.5969 29.1811C47.5753 29.1811 47.5573 29.1685 47.5447 29.1522C47.532 29.136 47.3932 28.9629 47.3932 28.9629C47.3716 28.9359 47.3734 28.898 47.3968 28.8728C47.404 28.8638 47.4149 28.8584 47.4257 28.8548C47.2832 28.5447 47.0723 28.2833 46.7027 28.2508C46.6847 28.2616 46.6631 28.2634 46.6414 28.2544C46.636 28.2526 46.6234 28.249 46.618 28.2472H46.591C46.5693 28.2436 46.5495 28.2328 46.5369 28.2148C46.5297 28.2039 46.5261 28.1913 46.5261 28.1769C46.4269 28.103 46.3187 28.011 46.2142 27.9209L46.1168 27.838C45.8356 27.5856 45.0424 26.8663 44.7377 26.5814L44.6782 26.5291C44.4979 26.3687 44.3104 26.2028 44.1067 26.0586C43.9769 25.9594 43.8128 25.909 43.6758 25.9252C43.3387 25.9739 43.043 26.2353 42.8051 26.4462L42.778 26.4696C42.284 26.9312 41.8586 27.4576 41.5088 27.9119C41.4656 27.9678 41.4223 28.0273 41.3772 28.085C41.0563 28.5122 40.694 28.9954 40.1783 29.1793C40.2126 29.2243 40.2451 29.2748 40.2739 29.3307C40.2901 29.3595 40.2811 29.3956 40.2559 29.4172C40.2306 29.4389 40.1946 29.4389 40.1675 29.4172L39.9296 29.2189C39.8989 29.2099 39.8755 29.1811 39.8755 29.1486C39.8755 29.1234 39.8917 29.1017 39.9133 29.0891C39.8989 29.0747 39.8827 29.0603 39.8665 29.0459C39.6267 28.8295 39.3418 28.651 39.0642 28.4798C38.8028 28.3175 38.5342 28.1499 38.3052 27.9515C38.0023 27.5423 37.6959 27.335 37.3317 27.2881C37.0775 27.2557 36.8143 27.3043 36.524 27.4359C36.2843 27.5531 36.0679 27.5874 35.8822 27.5333C35.8876 27.5657 35.8714 27.5982 35.8408 27.6108C35.8101 27.6234 35.7723 27.6108 35.7542 27.5838L35.6515 27.4143C35.6389 27.3963 35.6298 27.3728 35.6353 27.353C35.6389 27.3332 35.6515 27.317 35.6695 27.3079C35.5271 26.8861 35.2422 26.2731 34.7519 26.0766C34.4544 25.9594 34.1155 26.0117 33.7459 26.2371C33.5332 26.3669 33.3457 26.5381 33.1636 26.7022C33.05 26.805 32.9436 26.9023 32.8319 26.9888C32.8229 26.9961 32.8138 27.0033 32.803 27.0105C32.803 27.0123 32.803 27.0141 32.803 27.0159C32.7958 27.0483 32.7706 27.0718 32.7327 27.0682C32.7219 27.0682 32.7111 27.0682 32.7021 27.0682C32.3595 27.0682 32.0639 27.3458 31.8259 27.5712C31.4689 27.9227 31.1823 28.2761 30.8434 28.7015C30.2502 29.4533 29.4318 30.0014 28.6403 30.5314L28.4799 30.6395C28.2076 30.8126 27.903 31.0019 27.647 31.1065C27.647 31.1155 27.647 31.1245 27.6434 31.1335C27.6344 31.157 27.6109 31.175 27.5857 31.1768C27.5749 31.1786 27.5568 31.1804 27.5262 31.1534C27.5298 31.1588 27.5118 31.1534 27.5045 31.1534C27.4703 31.1497 27.4396 31.1317 27.4324 31.0975C27.4288 31.0812 27.4324 31.065 27.4414 31.0506C27.4378 31.0452 27.4342 31.0398 27.4306 31.0344C27.0845 30.5043 26.7383 30.0086 26.4301 29.6029C26.3724 29.5326 26.3129 29.4587 26.2534 29.3812C25.9217 28.9611 25.5449 28.4834 25.0311 28.3031C24.6273 28.1571 24.2306 28.3446 23.8448 28.5266C23.715 28.5879 23.5924 28.6456 23.4716 28.6907C23.3671 28.725 23.2156 28.7899 23.1706 28.8097C22.8082 28.9737 22.536 29.2081 22.2746 29.4353C22.1502 29.5434 22.0204 29.6552 21.8834 29.758C21.8762 29.7634 21.8671 29.767 21.8581 29.7706C21.6075 29.8301 21.3137 29.7526 21.0306 29.675C20.8125 29.6155 20.5799 29.5579 20.3852 29.5597C20.3023 29.5597 20.2338 29.5813 20.1563 29.6047C20.0787 29.63 19.9904 29.657 19.8822 29.6606C19.738 29.6732 19.4892 29.6768 19.2693 29.6805C19.1827 29.6805 19.1034 29.6823 19.0385 29.6841H18.9826C18.1101 29.7075 17.3511 29.7291 17.1798 30.6558C17.2267 30.681 17.2718 30.7045 17.3204 30.7261C17.3547 30.7387 17.3709 30.7748 17.3601 30.809C17.3493 30.8433 17.3114 30.8649 17.2754 30.8559C17.2573 30.8559 17.2375 30.8559 17.1852 30.8793C17.1582 30.8937 17.1257 30.9208 17.1149 30.9388C17.0969 30.9695 17.0554 30.9803 17.023 30.9623C16.9905 30.946 16.9779 30.9064 16.9923 30.8739C16.9923 30.8739 17.0104 30.8306 17.023 30.7585C17.023 30.7477 17.0248 30.7369 17.0266 30.7261C16.7471 30.5656 16.4893 30.3709 16.2387 30.1816C15.9575 29.9689 15.6673 29.7508 15.3536 29.5813C14.9587 29.3487 14.5405 29.4226 14.1998 29.7832C13.9906 30.0014 13.8212 30.2411 13.6589 30.4719C13.4949 30.7026 13.3254 30.9406 13.1199 31.157C12.0436 32.3378 11.0935 33.1599 10.1308 33.7386C9.96134 33.8432 9.79908 33.9333 9.63503 34.0126L9.37903 34.137C8.66691 34.4759 8.03232 35.0294 7.46263 35.8172C8.10263 35.1141 8.76607 34.6382 9.47277 34.3768L9.75041 34.2758C9.81891 34.2524 9.88382 34.2254 9.94872 34.1965L10.0262 34.1641C11.034 33.7188 12.04 33.0373 13.192 32.0259C13.5237 31.7303 13.8013 31.4202 13.9978 31.1335C14.0682 31.0416 14.1367 30.9388 14.2088 30.8343C14.3728 30.5927 14.5441 30.3421 14.7424 30.1726C14.7604 30.1546 14.7803 30.1438 14.7929 30.1348C14.7983 30.1312 14.8037 30.1294 14.8073 30.1257C14.8127 30.1221 14.8181 30.1185 14.8253 30.1167L14.8506 30.1059C14.8506 30.1059 14.8578 30.1041 14.8614 30.1023C14.8884 30.0861 14.9335 30.0915 15.0543 30.1582C15.3572 30.3313 15.6438 30.544 15.9214 30.7495C16.172 30.937 16.4334 31.1299 16.7057 31.2958L16.7291 31.3084C16.9707 31.4436 17.2213 31.5842 17.4899 31.4562C17.6738 31.3805 17.7784 31.056 17.8018 30.91C17.809 30.8757 17.8144 30.8451 17.8198 30.8162C17.8414 30.69 17.8631 30.5692 17.9622 30.4809C18.047 30.4304 18.1227 30.4034 18.2381 30.3854L18.4959 30.3583C18.6978 30.3367 18.943 30.3349 19.2044 30.3313C19.6641 30.3259 20.14 30.3186 20.378 30.2141C20.3888 30.2087 20.4014 30.2069 20.4141 30.2087C20.5962 30.2285 20.7818 30.2754 20.9621 30.3223C21.3696 30.4268 21.7896 30.535 22.1989 30.3277C22.3665 30.2195 22.5378 30.0717 22.7036 29.9274C22.9416 29.7201 23.1886 29.5056 23.45 29.3974L23.4915 29.3794C23.5149 29.3686 23.5384 29.3595 23.5618 29.3505L23.6862 29.3055C23.8394 29.255 24.0053 29.1757 24.1675 29.0981C24.2829 29.0423 24.3911 28.99 24.4848 28.9539C24.7679 28.8385 24.9464 28.9539 25.1032 29.0801C25.6242 29.5525 26.0497 30.1636 26.4607 30.7549L26.5779 30.9226L26.9331 31.4526C26.9889 31.5301 27.0466 31.6113 27.1818 31.7086C27.308 31.8132 27.5857 31.8276 27.7263 31.7699C28.1103 31.6419 28.4114 31.4526 28.7305 31.2525L28.9432 31.1155C29.8085 30.5368 30.7045 29.9383 31.3572 29.1054C31.4347 29.0116 31.5104 28.9179 31.5879 28.8223C31.8944 28.4401 32.2117 28.0471 32.6047 27.7767C32.6047 27.7677 32.6101 27.7586 32.6155 27.7496C32.63 27.728 32.6552 27.7172 32.6822 27.719C32.6858 27.719 32.6894 27.719 32.6913 27.719C32.7093 27.7118 32.7309 27.7118 32.7471 27.719C32.922 27.71 33.1221 27.5964 33.2231 27.5117C33.3313 27.4197 33.4304 27.3332 33.5223 27.2521C33.9767 26.8536 34.2507 26.6139 34.5103 26.6896C34.7447 26.7563 34.9177 27.0682 35.1539 27.8398L35.1593 27.8452C35.1936 27.8758 35.2404 27.9173 35.2711 27.9407C35.6334 28.2274 36.1671 28.2887 36.6304 28.0994C36.8233 28.0128 37.0829 27.8975 37.2578 27.9353C37.4435 27.9461 37.6382 28.1354 37.7482 28.2941C37.7626 28.3121 37.8004 28.359 37.8203 28.3806C38.0654 28.6258 38.3665 28.8097 38.6568 28.9864C38.9741 29.1793 39.3004 29.3794 39.5564 29.6606C39.56 29.6642 39.6447 29.7796 39.679 29.8247C39.816 29.8625 39.9386 29.8788 40.0287 29.8679C40.9265 29.7832 41.5034 29.0044 42.0136 28.3193L42.0244 28.3049C42.1002 28.213 42.1723 28.121 42.2462 28.0273C42.65 27.5189 43.0665 26.9961 43.5929 26.6535C43.5803 26.6319 43.5803 26.603 43.5947 26.5814C43.6163 26.5508 43.656 26.5399 43.6884 26.5598C43.6974 26.5652 43.7245 26.5724 43.7371 26.5706C43.7696 26.5598 43.8038 26.576 43.8182 26.6085C43.8254 26.6229 43.8254 26.6391 43.82 26.6535C44.1878 26.9456 44.561 27.2917 44.9216 27.6288C45.3398 28.0183 45.7725 28.4203 46.1998 28.7394C46.2773 28.7899 46.3891 28.8656 46.4882 28.88C46.5207 28.8854 46.5459 28.8908 46.5675 28.8908L46.6306 28.8962C46.6595 28.8998 46.6757 28.9034 46.6829 28.9052C46.6991 28.9088 46.7136 28.9161 46.7244 28.9305C46.7983 29.0224 46.9299 29.3686 46.9642 29.4605L47.2238 29.6372C47.624 29.9112 48.0368 30.1943 48.3613 30.562C48.4136 30.6233 48.4659 30.6882 48.5218 30.7567C48.7688 31.0614 49.0482 31.4076 49.416 31.5662C49.782 31.714 50.1984 31.8835 50.4905 32.1521C50.6491 32.2891 50.8258 32.5289 50.9682 32.72L51.0151 32.7849C51.3396 33.2122 51.7002 33.634 52.0499 34.0415L52.1436 34.1514C52.2049 34.2199 52.268 34.2903 52.3311 34.3624C52.5511 34.6148 52.78 34.8744 53.0541 35.0709C53.2091 35.1826 53.4633 35.1286 53.5805 35.0492C53.649 35.0114 53.7049 34.9627 53.759 34.914C53.7752 34.8996 53.7896 34.887 53.804 34.8744C53.7986 34.8581 53.8004 34.8383 53.8076 34.8221C53.8257 34.786 53.878 34.7734 53.9104 34.7968C53.9104 34.7968 53.9104 34.7968 53.9122 34.7986C53.914 34.7986 53.9176 34.8023 53.9194 34.8041C53.9537 34.8005 53.9735 34.8167 53.9825 34.8329C53.9879 34.8419 53.9915 34.8527 53.9915 34.8635C54.0673 34.9303 54.1376 35.006 54.2115 35.0853C54.3593 35.2439 54.5107 35.408 54.7036 35.4891C54.7253 35.4963 54.7523 35.5054 54.7722 35.5126C54.792 35.518 54.8082 35.5234 54.8208 35.5306L54.8262 35.5342Z" fill="white"/>
</svg>
